<svg xmlns="http://www.w3.org/2000/svg" width="24.552" height="24.552" viewBox="0 0 24.552 24.552">
  <g id="_2253" data-name="2253" transform="translate(0 0)">
    <path id="Path_63417" data-name="Path 63417" d="M17.772,14.49l-.009.077c-2.25-1.121-2.485-1.271-2.775-.835-.2.3-.789.986-.966,1.189s-.357.215-.661.077A8.3,8.3,0,0,1,10.9,13.478a9.281,9.281,0,0,1-1.7-2.118c-.3-.518.327-.591.9-1.672a.562.562,0,0,0-.026-.536C10,9,9.39,7.5,9.134,6.9s-.5-.522-.687-.522a1.523,1.523,0,0,0-1.4.352C5.4,8.541,5.812,10.413,7.225,12.4c2.776,3.634,4.256,4.3,6.96,5.232a4.232,4.232,0,0,0,1.923.124A3.148,3.148,0,0,0,18.171,16.3a2.532,2.532,0,0,0,.184-1.458C18.28,14.7,18.079,14.628,17.772,14.49Z" transform="translate(0.137 0.147)" fill="#fff"/>
    <path id="Path_63418" data-name="Path 63418" d="M20.992,3.528C13.126-4.076.108,1.439.1,12.167a12.108,12.108,0,0,0,1.632,6.082L0,24.552l6.481-1.69A12.246,12.246,0,0,0,24.552,12.173a12.065,12.065,0,0,0-3.575-8.6Zm1.516,8.611a10.185,10.185,0,0,1-15.357,8.7l-.368-.219-3.836,1,1.028-3.729L3.73,17.5a10.146,10.146,0,0,1,15.8-12.516,10.013,10.013,0,0,1,2.976,7.151Z" transform="translate(0 0)" fill="#fff"/>
  </g>
</svg>
